<?xml version="1.0" standalone="no"?>
<!DOCTYPE svg PUBLIC "-//W3C//DTD SVG 20010904//EN"
 "http://www.w3.org/TR/2001/REC-SVG-20010904/DTD/svg10.dtd">
<svg version="1.0" xmlns="http://www.w3.org/2000/svg"
 width="512.000000pt" height="512.000000pt" viewBox="0 0 512.000000 512.000000"
 preserveAspectRatio="xMidYMid meet">
<metadata>
Created by potrace 1.14, written by Peter Selinger 2001-2017
</metadata>
<g transform="translate(0.000000,512.000000) scale(0.100000,-0.100000)"
fill="#000000" stroke="none">
<path d="M2600 5088 c-30 -10 -79 -18 -108 -19 -29 0 -50 -4 -47 -10 4 -5 12
-9 18 -9 7 0 13 -9 13 -19 0 -11 -3 -18 -6 -16 -3 2 -25 0 -49 -5 -25 -4 -54
-5 -65 -1 -17 7 -14 9 18 15 35 7 37 8 22 25 -9 10 -16 23 -16 30 0 14 -61 11
-250 -14 -125 -17 -291 -57 -394 -96 -52 -19 -56 -22 -39 -34 16 -12 14 -14
-22 -14 -82 1 -138 -20 -324 -117 -149 -79 -236 -136 -274 -180 -15 -18 -41
-35 -58 -39 -16 -4 -35 -15 -42 -26 -6 -10 -16 -19 -21 -19 -5 0 -21 -12 -35
-28 -14 -15 -47 -44 -72 -64 -75 -60 -252 -242 -294 -302 -11 -16 -37 -51 -58
-78 -21 -27 -36 -52 -33 -55 3 -3 -14 -33 -38 -67 -83 -118 -198 -341 -262
-509 -35 -90 -94 -291 -99 -333 -1 -11 -4 -25 -7 -30 -3 -5 -9 -29 -12 -54 -3
-25 -8 -56 -11 -70 -7 -45 -17 -124 -20 -172 -1 -25 -5 -50 -7 -55 -5 -11 -2
-263 5 -338 3 -33 11 -94 17 -135 7 -41 13 -86 15 -100 7 -59 42 -221 60 -282
8 -27 11 -48 8 -48 -3 0 0 -6 6 -13 6 -8 8 -17 4 -20 -3 -4 -1 -7 5 -7 7 0 11
-3 10 -8 -11 -45 95 -289 193 -442 38 -60 119 -201 119 -208 0 -9 40 -53 72
-78 13 -10 46 -50 73 -87 61 -82 193 -222 256 -270 48 -36 77 -60 138 -114 20
-18 39 -33 42 -33 3 0 17 -9 30 -21 50 -44 279 -190 394 -252 67 -36 124 -74
130 -85 12 -27 47 -36 62 -16 6 9 16 14 20 11 5 -3 34 -7 64 -8 30 -2 97 -15
149 -31 81 -24 183 -51 240 -63 8 -1 51 -8 95 -15 44 -6 91 -13 105 -16 124
-21 186 -23 305 -10 92 9 86 9 117 3 15 -3 30 -1 34 4 3 5 9 7 13 5 4 -3 23
-1 42 4 19 5 52 11 74 14 22 4 63 11 91 16 28 6 66 9 86 6 25 -3 61 6 123 31
48 19 105 37 126 39 24 2 96 33 182 78 78 41 166 82 195 91 28 10 52 21 52 25
0 11 41 51 80 80 19 14 50 39 70 56 47 42 73 54 98 47 17 -4 22 -1 22 14 0 31
30 50 90 57 30 3 56 6 57 6 1 0 30 25 63 55 34 30 71 57 83 61 27 8 37 22 37
50 0 12 17 37 38 56 90 84 174 179 169 193 -4 8 13 40 37 73 36 49 116 198
116 217 0 13 54 85 64 85 6 0 19 21 28 48 17 47 12 87 -15 129 -4 6 8 29 28
53 19 23 36 46 36 51 6 44 59 179 70 179 10 0 27 54 34 110 3 25 12 72 20 105
7 33 16 80 20 105 4 24 8 47 10 50 1 3 6 39 10 80 11 124 13 143 23 188 6 24
8 55 6 70 -2 15 -6 45 -8 67 -1 22 -6 49 -10 60 -36 95 -36 90 -15 103 18 11
24 62 7 62 -11 0 -20 38 -22 89 -1 32 -15 74 -45 136 -24 50 -46 99 -48 110
-2 11 -10 41 -19 67 -13 39 -21 49 -50 58 -23 8 -34 18 -34 31 0 21 25 26 33
7 3 -8 6 -6 6 4 1 10 -7 37 -18 60 -40 92 -51 119 -51 130 0 13 -58 108 -76
123 -24 22 -56 77 -79 140 -53 141 -81 180 -142 205 -18 7 -33 16 -33 20 0 10
-80 90 -88 89 -21 -3 -37 9 -124 99 -180 183 -257 266 -252 273 5 9 -47 40
-96 59 -19 8 -46 26 -60 40 -68 72 -273 179 -414 215 -13 3 -24 7 -126 43 -59
21 -75 31 -75 47 0 20 -32 41 -76 49 -13 3 -24 5 -24 6 0 2 -37 9 -70 12 -24
2 -30 -1 -28 -15 1 -19 1 -19 -67 -1 -123 32 -184 44 -225 45 -56 0 -98 12
-74 20 8 3 47 4 87 3 60 -2 71 0 62 12 -31 36 33 37 85 0 36 -25 41 -26 121
-30 35 -1 73 3 85 9 21 12 21 12 -12 25 -19 7 -37 13 -41 14 -3 1 -10 4 -14 9
-13 13 -26 8 -20 -8 7 -20 -13 -19 -36 2 -10 9 -35 17 -56 17 -20 1 -41 4 -47
7 -5 4 -37 5 -70 4 -33 -1 -68 2 -79 7 -31 17 -59 16 -116 -4z m130 -34 c12
-13 10 -15 -16 -10 -41 6 -41 6 -19 16 11 5 21 9 21 9 1 1 7 -6 14 -15z m-493
-20 c8 -22 -10 -36 -41 -32 l-27 3 21 23 c24 26 38 28 47 6z m-222 -14 c3 -5
1 -10 -4 -10 -6 0 -11 5 -11 10 0 6 2 10 4 10 3 0 8 -4 11 -10z m83 -25 c-10
-10 -49 -14 -43 -4 4 5 16 9 27 9 12 0 19 -2 16 -5z m-61 -41 c-3 -3 -12 -4
-19 -1 -8 3 -5 6 6 6 11 1 17 -2 13 -5z m1118 -34 c3 -5 -3 -10 -15 -10 -12 0
-18 5 -15 10 3 6 10 10 15 10 5 0 12 -4 15 -10z m-1768 -147 c-9 -9 -20 -13
-24 -9 -4 4 1 14 11 22 25 18 35 8 13 -13z"/>
<path d="M3342 4948 c-39 -39 18 -78 123 -84 96 -5 118 -12 159 -47 47 -41
127 -70 181 -65 l40 3 -35 19 c-19 11 -48 20 -65 21 -37 1 -58 13 -52 30 7 17
-129 78 -203 91 -43 7 -54 10 -94 27 -46 20 -39 20 -54 5z"/>
<path d="M4185 4501 c-3 -5 4 -13 16 -16 28 -9 33 -2 9 13 -11 6 -21 8 -25 3z"/>
<path d="M4450 4219 c11 -30 27 -65 34 -79 8 -14 15 -28 15 -32 2 -14 22 -11
45 7 18 14 18 16 -10 52 -30 39 -57 68 -87 92 -16 13 -16 9 3 -40z"/>
<path d="M4740 3761 c0 -18 20 -62 34 -76 20 -20 87 -57 93 -51 13 12 -41 96
-73 115 -38 23 -54 26 -54 12z"/>
<path d="M5087 2803 c10 -29 14 -34 24 -28 5 4 5 14 -1 26 -13 24 -32 25 -23
2z"/>
<path d="M4846 1445 c-9 -33 -1 -44 12 -18 6 11 7 25 3 32 -6 9 -10 5 -15 -14z"/>
</g>
</svg>
